<svg
   xmlns:dc="http://purl.org/dc/elements/1.1/"
   xmlns:cc="http://creativecommons.org/ns#"
   xmlns:rdf="http://www.w3.org/1999/02/22-rdf-syntax-ns#"
   xmlns:svg="http://www.w3.org/2000/svg"
   xmlns="http://www.w3.org/2000/svg"
   xmlns:sodipodi="http://sodipodi.sourceforge.net/DTD/sodipodi-0.dtd"
   xmlns:inkscape="http://www.inkscape.org/namespaces/inkscape"
   height="17.206221"
   width="24.002243"
   viewBox="-35.20005 -41.33325 305.0956 177.79726"
   version="1.1"
   id="svg12"
   sodipodi:docname="youtube.svg"
   inkscape:version="0.92.5 (2060ec1f9f, 2020-04-08)">
  <metadata
     id="metadata18">
    <rdf:RDF>
      <cc:Work
         rdf:about="">
        <dc:format>image/svg+xml</dc:format>
        <dc:type
           rdf:resource="http://purl.org/dc/dcmitype/StillImage" />
        <dc:title></dc:title>
      </cc:Work>
    </rdf:RDF>
  </metadata>
  <defs
     id="defs16" />
  <sodipodi:namedview
     pagecolor="#ffffff"
     bordercolor="#666666"
     borderopacity="1"
     objecttolerance="10"
     gridtolerance="10"
     guidetolerance="10"
     inkscape:pageopacity="0"
     inkscape:pageshadow="2"
     inkscape:window-width="1920"
     inkscape:window-height="1006"
     id="namedview14"
     showgrid="false"
     inkscape:pagecheckerboard="true"
     units="px"
     width="24mm"
     inkscape:zoom="17.145833"
     inkscape:cx="1.101608"
     inkscape:cy="4.9672358"
     inkscape:window-x="1920"
     inkscape:window-y="0"
     inkscape:window-maximized="1"
     inkscape:current-layer="svg12"
     fit-margin-top="0"
     fit-margin-left="0"
     fit-margin-right="0"
     fit-margin-bottom="0" />
  <path
     d="M 86.144188,91.590206 V -0.72340444 L 165.88584,45.434699 Z M 263.51977,-29.770505 c -3.50903,-13.4428 -13.8476,-24.0296 -26.97362,-27.622399 -23.79223,-6.5296 -119.19904,-6.5296 -119.19904,-6.5296 0,0 -95.405519,0 -119.197744,6.5296 -13.126026,3.592799 -23.464592,14.179599 -26.97362,27.622399 -6.375796,24.3654996 -6.375796,75.203904 -6.375796,75.203904 0,0 0,50.835687 6.375796,75.202591 3.509028,13.4441 13.846294,24.0295 26.97362,27.625 23.792225,6.527 119.197744,6.527 119.197744,6.527 0,0 95.40681,0 119.19904,-6.527 13.12602,-3.5955 23.46459,-14.1809 26.97362,-27.625 6.37579,-24.366904 6.37579,-75.203891 6.37579,-75.203891 0,0 0,-50.8371044 -6.37579,-75.202604"
     id="path10"
     inkscape:connector-curvature="0"
     style="fill:#ffffff;stroke-width:1.3114357" />
</svg>
